{
  "accessors": [
    {
      "bufferView": 3,
      "componentType": 5126,
      "count": 1872,
      "max": [
        15.137041091918945,
        19.783823013305664,
        20.3211669921875
      ],
      "min": [
        -15.136896133422852,
        -15.463822364807129,
        -20.57489776611328
      ],
      "type": "VEC3"
    },
    {
      "bufferView": 3,
      "byteOffset": 22464,
      "componentType": 5126,
      "count": 1872,
      "max": [
        1.0,
        1.0,
        1.0
      ],
      "min": [
        -1.0,
        -1.0,
        -1.0
      ],
      "type": "VEC3"
    },
    {
      "bufferView": 2,
      "componentType": 5126,
      "count": 1872,
      "max": [
        0.9976490139961243,
        0.9979190230369568
      ],
      "min": [
        0.005555999930948019,
        0.0030400000978261232
      ],
      "type": "VEC2"
    },
    {
      "bufferView": 1,
      "componentType": 5125,
      "count": 10194,
      "type": "SCALAR"
    },
    {
      "bufferView": 5,
      "componentType": 5126,
      "count": 31,
      "max": [
        1.0,
        0.9999197721481323,
        1.0,
        0.0,
        1.131367184825649e-06,
        1.0,
        1.0000001192092896,
        0.0,
        0.9998939037322998,
        1.0,
        1.0,
        0.0,
        16.10497283935547,
        13.416102409362793,
        9.792000770568848,
        1.0
      ],
      "min": [
        -1.0,
        -0.04967040196061134,
        -0.0003576530434656888,
        0.0,
        -0.007205938920378685,
        -0.007219360210001469,
        -4.0133900824912416e-07,
        0.0,
        -1.0,
        -0.06213003769516945,
        6.123234262925839e-17,
        0.0,
        -15.758828163146973,
        -15.975321769714355,
        -15.344892501831055,
        1.0
      ],
      "type": "MAT4"
    },
    {
      "bufferView": 0,
      "componentType": 5123,
      "count": 1872,
      "type": "VEC4"
    },
    {
      "bufferView": 4,
      "componentType": 5126,
      "count": 1872,
      "max": [
        1.0,
        0.5,
        0.29091230034828186,
        0.2122350037097931
      ],
      "min": [
        0.2809372544288635,
        0.0,
        0.0,
        0.0
      ],
      "type": "VEC4"
    }
  ],
  "asset": {
    "extras": {
      "author": "dimitrios.kanellos6 (https://sketchfab.com/dimitrios.kanellos6)",
      "license": "CC-BY-4.0 (http://creativecommons.org/licenses/by/4.0/)",
      "source": "https://sketchfab.com/3d-models/mobile-angry-birds-go-red-3c80ecdd86a94d6099fea3907c696442",
      "title": "Mobile - Angry Birds Go - Red"
    },
    "generator": "Sketchfab-12.67.0",
    "version": "2.0"
  },
  "bufferViews": [
    {
      "buffer": 0,
      "byteLength": 14976,
      "byteStride": 8,
      "name": "shortBufferViews",
      "target": 34962
    },
    {
      "buffer": 0,
      "byteLength": 40776,
      "byteOffset": 14976,
      "name": "floatBufferViews",
      "target": 34963
    },
    {
      "buffer": 0,
      "byteLength": 14976,
      "byteOffset": 55752,
      "byteStride": 8,
      "name": "floatBufferViews",
      "target": 34962
    },
    {
      "buffer": 0,
      "byteLength": 44928,
      "byteOffset": 70728,
      "byteStride": 12,
      "name": "floatBufferViews",
      "target": 34962
    },
    {
      "buffer": 0,
      "byteLength": 29952,
      "byteOffset": 115656,
      "byteStride": 16,
      "name": "floatBufferViews",
      "target": 34962
    },
    {
      "buffer": 0,
      "byteLength": 1984,
      "byteOffset": 145608,
      "name": "floatBufferViews"
    }
  ],
  "buffers": [
    {
      "byteLength": 147592,
      "uri": "scene.bin"
    }
  ],
  "images": [
    {
      "uri": "textures/Material_55_baseColor.png"
    }
  ],
  "materials": [
    {
      "doubleSided": true,
      "name": "Material_55",
      "pbrMetallicRoughness": {
        "baseColorTexture": {
          "index": 0
        },
        "metallicFactor": 0.0,
        "roughnessFactor": 0.8929713596497552
      }
    }
  ],
  "meshes": [
    {
      "name": "Red_Material #55_0",
      "primitives": [
        {
          "attributes": {
            "JOINTS_0": 5,
            "NORMAL": 1,
            "POSITION": 0,
            "TEXCOORD_0": 2,
            "WEIGHTS_0": 6
          },
          "indices": 3,
          "material": 0,
          "mode": 4
        }
      ]
    }
  ],
  "nodes": [
    {
      "children": [
        1
      ],
      "matrix": [
        1.0,
        0.0,
        0.0,
        0.0,
        0.0,
        2.220446049250313e-16,
        -1.0,
        0.0,
        0.0,
        1.0,
        2.220446049250313e-16,
        0.0,
        0.0,
        0.0,
        0.0,
        1.0
      ],
      "name": "Sketchfab_model"
    },
    {
      "children": [
        2
      ],
      "matrix": [
        1.0,
        0.0,
        0.0,
        0.0,
        0.0,
        0.0,
        1.0,
        0.0,
        0.0,
        -1.0,
        0.0,
        0.0,
        0.0,
        0.0,
        0.0,
        1.0
      ],
      "name": "Red.FBX"
    },
    {
      "children": [
        3
      ],
      "name": "RootNode"
    },
    {
      "children": [
        4,
        6,
        5
      ],
      "name": "Object_3"
    },
    {
      "children": [
        7
      ],
      "name": "_rootJoint"
    },
    {
      "matrix": [
        1.0,
        0.0,
        7.498797453238701e-33,
        0.0,
        7.498797453238701e-33,
        6.123233995736766e-17,
        -1.0,
        0.0,
        -4.5916891492815495e-49,
        1.0,
        6.123233995736766e-17,
        0.0,
        0.0,
        0.0,
        0.0,
        1.0
      ],
      "name": "Object_5"
    },
    {
      "mesh": 0,
      "name": "Object_6",
      "skin": 0
    },
    {
      "children": [
        8
      ],
      "name": "Root_00",
      "rotation": [
        -1.3767878215276141e-07,
        0.7071068286895752,
        0.7071068286895752,
        1.3767878215276141e-07
      ],
      "translation": [
        0.0,
        -9.792000770568848,
        0.0
      ]
    },
    {
      "children": [
        9,
        33,
        34
      ],
      "name": "Middle_02",
      "rotation": [
        -4.930380657631324e-32,
        -1.1603410531458374e-32,
        -0.0,
        1.0
      ],
      "translation": [
        0.0,
        3.944304526105059e-31,
        6.425999164581299
      ]
    },
    {
      "children": [
        10,
        17,
        28,
        30,
        32
      ],
      "name": "Face_03",
      "rotation": [
        -4.930380657631324e-32,
        -1.2325963399021818e-32,
        -0.0,
        1.0
      ],
      "translation": [
        6.566598334352786e-22,
        9.592156410217285,
        1.4860539436340332
      ]
    },
    {
      "children": [
        11,
        14,
        15,
        16
      ],
      "name": "Beek_01",
      "rotation": [
        -4.930380657631324e-32,
        -1.2325963399021818e-32,
        -0.0,
        1.0
      ],
      "translation": [
        -2.6822235081084944e-22,
        -9.592156410217285,
        1.8799480199813843
      ]
    },
    {
      "children": [
        12
      ],
      "name": "BeekDown_04",
      "rotation": [
        -4.930380657631324e-32,
        -1.2325963399021818e-32,
        -0.0,
        1.0
      ],
      "translation": [
        -1.5529411019452625e-22,
        14.275867462158203,
        -6.115490913391113
      ]
    },
    {
      "children": [
        13
      ],
      "name": "TongueRoot_05",
      "rotation": [
        -0.4999999403953552,
        0.5000002384185791,
        0.4999998211860657,
        -0.4999999701976776
      ],
      "translation": [
        -9.094947017729282e-13,
        0.1854381561279297,
        -0.2802739143371582
      ]
    },
    {
      "name": "TongueTip_06",
      "rotation": [
        -6.075612114736795e-21,
        1.213926962423395e-14,
        4.999999987376214e-07,
        1.0
      ],
      "translation": [
        -1.6436681747436523,
        -1.9073486328125e-06,
        -1.6940658945086007e-21
      ]
    },
    {
      "name": "BeekUp_07",
      "rotation": [
        -4.930380657631324e-32,
        -1.2325963399021818e-32,
        -0.0,
        1.0
      ],
      "translation": [
        -1.0023270195835031e-21,
        14.27586555480957,
        -6.115490913391113
      ]
    },
    {
      "name": "LeftBeekCorner_08",
      "rotation": [
        -4.930380657631324e-32,
        -1.2325963399021818e-32,
        -0.0,
        1.0
      ],
      "translation": [
        -4.895993232727051,
        14.297683715820313,
        -5.935492992401123
      ]
    },
    {
      "name": "RightBeekCorner_09",
      "rotation": [
        -4.930380657631324e-32,
        -1.2325963399021818e-32,
        -0.0,
        1.0
      ],
      "translation": [
        4.895995140075684,
        14.297683715820313,
        -5.935492038726807
      ]
    },
    {
      "children": [
        18,
        23
      ],
      "name": "Eyes_010",
      "rotation": [
        -4.930380657631324e-32,
        -1.2325963399021818e-32,
        -0.0,
        1.0
      ],
      "translation": [
        4.235164736271502e-22,
        2.683034896850586,
        1.458920955657959
      ]
    },
    {
      "children": [
        19,
        21,
        22
      ],
      "name": "LeftEyeScale_011",
      "rotation": [
        -0.002688055858016014,
        0.002409218344837427,
        0.70259690284729,
        0.7115789651870728
      ],
      "scale": [
        0.9999999403953552,
        1.0,
        0.9999998807907104
      ],
      "translation": [
        -0.0063149998895823956,
        -0.038745880126953125,
        -0.006323009729385376
      ]
    },
    {
      "children": [
        20
      ],
      "name": "LeftEye_012",
      "rotation": [
        0.00031071549165062606,
        -0.0035177834797650576,
        -0.024694912135601044,
        0.9996888041496277
      ],
      "scale": [
        1.000000238418579,
        1.0000003576278687,
        0.9999999403953552
      ],
      "translation": [
        3.814697265625e-06,
        2.969604969024658,
        5.551115123125783e-17
      ]
    },
    {
      "name": "LeftPupil_013",
      "rotation": [
        -1.6529055901770562e-11,
        1.428542440590208e-11,
        -0.6848210096359253,
        0.7287113070487976
      ],
      "scale": [
        1.0000001192092896,
        1.0000001192092896,
        1.0000001192092896
      ],
      "translation": [
        3.6940155029296875,
        0.22962427139282227,
        -0.0362110435962677
      ]
    },
    {
      "name": "LeftEyeLidDown_014",
      "rotation": [
        -3.1021613722259644e-06,
        -3.301039214420598e-06,
        -0.6848143935203552,
        0.7287175059318542
      ],
      "scale": [
        1.000000238418579,
        1.0000001192092896,
        1.0
      ],
      "translation": [
        1.0308055877685547,
        3.033698081970215,
        -0.06834900379180908
      ]
    },
    {
      "name": "LeftEyeLidUp_015",
      "rotation": [
        -3.1021613722259644e-06,
        -3.301039214420598e-06,
        -0.6848143935203552,
        0.7287175059318542
      ],
      "scale": [
        1.000000238418579,
        1.0000001192092896,
        1.0
      ],
      "translation": [
        0.8466815948486328,
        3.0230636596679688,
        0.09199598431587219
      ]
    },
    {
      "children": [
        24,
        26,
        27
      ],
      "name": "RightEyeScale_016",
      "rotation": [
        -0.0024095671251416206,
        0.002687697997316718,
        0.7115671634674072,
        0.7026088237762451
      ],
      "scale": [
        0.9999998807907104,
        0.9999999403953552,
        0.9999998807907104
      ],
      "translation": [
        -0.002931999508291483,
        -0.03891563415527344,
        -0.0063169896602630615
      ]
    },
    {
      "children": [
        25
      ],
      "name": "RightEye_017",
      "rotation": [
        -0.00031047279480844736,
        -0.003517798613756895,
        0.02474791556596756,
        0.9996874928474426
      ],
      "scale": [
        1.0000001192092896,
        1.0000003576278687,
        1.000000238418579
      ],
      "translation": [
        0.0,
        -2.9911656379699707,
        2.9802322387695313e-08
      ]
    },
    {
      "name": "RightPupil_018",
      "rotation": [
        4.4053655038137074e-13,
        7.275958481545164e-12,
        -1.1064723789977471e-11,
        1.0
      ],
      "scale": [
        0.9999998807907104,
        0.9999998807907104,
        1.0
      ],
      "translation": [
        3.6939525604248047,
        -0.2306056022644043,
        -0.03621000051498413
      ]
    },
    {
      "name": "RightEyeLidDown_019",
      "rotation": [
        3.6438875667954562e-06,
        3.423772568567074e-06,
        -0.7288074493408203,
        0.6847187280654907
      ],
      "scale": [
        1.0000001192092896,
        1.0,
        1.0000001192092896
      ],
      "translation": [
        1.0438051223754883,
        -3.0563430786132813,
        -0.06263601779937744
      ]
    },
    {
      "name": "RightEyeLidUp_020",
      "rotation": [
        3.6438875667954562e-06,
        3.423772568567074e-06,
        -0.7288074493408203,
        0.6847187280654907
      ],
      "scale": [
        1.0000001192092896,
        1.0,
        1.0000001192092896
      ],
      "translation": [
        0.8641300201416016,
        -3.045130491256714,
        0.09199905395507813
      ]
    },
    {
      "children": [
        29
      ],
      "name": "LeftEyebrownIn_021",
      "rotation": [
        -4.930380657631324e-32,
        -1.2325963399021818e-32,
        -0.0,
        1.0
      ],
      "translation": [
        -1.9439982175827026,
        4.355989456176758,
        5.00399112701416
      ]
    },
    {
      "name": "LeftEyebrownOut_022",
      "rotation": [
        -4.930380657631324e-32,
        -1.2325963399021818e-32,
        -0.0,
        1.0
      ],
      "translation": [
        -4.247995853424072,
        -1.0156517028808594,
        0.7199990749359131
      ]
    },
    {
      "children": [
        31
      ],
      "name": "RightEyeBrowIn_023",
      "rotation": [
        -4.930380657631324e-32,
        -1.2325963399021818e-32,
        -0.0,
        1.0
      ],
      "translation": [
        1.9440007209777832,
        4.355989456176758,
        5.003992080688477
      ]
    },
    {
      "name": "RightEyeBrowOut_024",
      "rotation": [
        -4.930380657631324e-32,
        -1.2325963399021818e-32,
        -0.0,
        1.0
      ],
      "translation": [
        4.247993469238281,
        -1.0038089752197266,
        0.7200000286102295
      ]
    },
    {
      "name": "Wrinkles_025",
      "rotation": [
        -4.930380657631324e-32,
        -1.2325963399021818e-32,
        -0.0,
        1.0
      ],
      "translation": [
        -4.235164736271502e-22,
        2.850356101989746,
        8.143089294433594
      ]
    },
    {
      "name": "Tail_026",
      "rotation": [
        -4.930380657631324e-32,
        -1.2325963399021818e-32,
        -0.0,
        1.0
      ],
      "translation": [
        1.0801763070624287e-21,
        -13.416102409362793,
        -0.18814706802368164
      ]
    },
    {
      "children": [
        35,
        36
      ],
      "name": "Up_027",
      "rotation": [
        -4.930380657631324e-32,
        -1.2325963399021818e-32,
        -0.0,
        1.0
      ],
      "translation": [
        -1.88079096131566e-37,
        3.944304526105059e-31,
        6.46199893951416
      ]
    },
    {
      "name": "Hair1_028",
      "rotation": [
        -4.930380657631324e-32,
        -1.2325963399021818e-32,
        -0.0,
        1.0
      ],
      "translation": [
        -5.084674750944407e-24,
        0.37915998697280884,
        12.248895645141602
      ]
    },
    {
      "name": "Hair2_029",
      "rotation": [
        -4.930380657631324e-32,
        -1.2325963399021818e-32,
        -0.0,
        1.0
      ],
      "translation": [
        2.1385105639613384e-23,
        -3.84608793258667,
        10.905975341796875
      ]
    }
  ],
  "samplers": [
    {
      "magFilter": 9729,
      "minFilter": 9987,
      "wrapS": 10497,
      "wrapT": 10497
    }
  ],
  "scene": 0,
  "scenes": [
    {
      "name": "Sketchfab_Scene",
      "nodes": [
        0
      ]
    }
  ],
  "skins": [
    {
      "inverseBindMatrices": 4,
      "joints": [
        4,
        7,
        8,
        9,
        10,
        11,
        12,
        13,
        14,
        15,
        16,
        17,
        18,
        19,
        20,
        21,
        22,
        23,
        24,
        25,
        26,
        27,
        28,
        29,
        30,
        31,
        32,
        33,
        34,
        35,
        36
      ],
      "skeleton": 4
    }
  ],
  "textures": [
    {
      "sampler": 0,
      "source": 0
    }
  ]
}
